<svg xmlns="http://www.w3.org/2000/svg" viewBox="0 0 245.01 48.32"><title>Google Play logo - Brandlogos.net</title><path d="M493.59,356.35,489,367.89h-.14l-4.72-11.54H479.9L487,372.47l-4,9h4.14L498,356.35Z" transform="translate(-252.99 -336.03)" style="fill:#5f6368"/><path d="M461.59,346.77h-4v26.6h4Z" transform="translate(-252.99 -336.03)" style="fill:#5f6368"/><path d="M446.7,346.77h-9.51v26.6h4V363.3h5.54c4.4,0,8.73-3.18,8.73-8.26S451.11,346.77,446.7,346.77Zm.11,12.82h-5.64v-9.1h5.65a4.56,4.56,0,0,1,0,9.12Z" transform="translate(-252.99 -336.03)" style="fill:#5f6368"/><path d="M471.34,355.77c-2.87,0-5.85,1.27-7.09,4.07l3.53,1.47a3.75,3.75,0,0,1,3.63-1.94c2.05,0,4.14,1.24,4.18,3.43v.27a8.79,8.79,0,0,0-4.12-1c-3.8,0-7.67,2.09-7.67,6,0,3.56,3.11,5.85,6.6,5.85a5.55,5.55,0,0,0,5.05-2.6h.14v2.05h3.83v-10.2c0-4.72-3.53-7.36-8.08-7.36Zm-.48,14.58c-1.3,0-3.11-.65-3.11-2.26,0-2.05,2.26-2.84,4.21-2.84a7.08,7.08,0,0,1,3.63.89,4.82,4.82,0,0,1-4.73,4.21Z" transform="translate(-252.99 -336.03)" style="fill:#5f6368"/><path d="M327.7,373.95a14.06,14.06,0,1,1,0-28.11,13.48,13.48,0,0,1,9.68,3.87l-2.72,2.71a9.86,9.86,0,0,0-7-2.74,10.22,10.22,0,0,0,0,20.43,9.46,9.46,0,0,0,7.13-2.81,8,8,0,0,0,2.1-4.83H327.7v-3.84h13a12.37,12.37,0,0,1,.21,2.4,12.66,12.66,0,0,1-3.34,9A12.94,12.94,0,0,1,327.7,373.95Z" transform="translate(-252.99 -336.03)" style="fill:#5f6368"/><path d="M361,364.9a9,9,0,1,1-9-9A8.88,8.88,0,0,1,361,364.9Zm-3.92,0a5.06,5.06,0,1,0-5,5.49A5.18,5.18,0,0,0,357.05,364.9Z" transform="translate(-252.99 -336.03)" style="fill:#5f6368"/><path d="M381.06,364.9a9,9,0,1,1-9-9A8.88,8.88,0,0,1,381.06,364.9Zm-3.92,0a5.06,5.06,0,1,0-5,5.49A5.18,5.18,0,0,0,377.14,364.9Z" transform="translate(-252.99 -336.03)" style="fill:#5f6368"/><path d="M400.64,356.4v16.25c0,6.68-4,9.43-8.64,9.43a8.66,8.66,0,0,1-8.06-5.35l3.48-1.44a5,5,0,0,0,4.58,3.22c3,0,4.86-1.85,4.86-5.31v-1.3h-.14a6.21,6.21,0,0,1-4.79,2.06,9.06,9.06,0,0,1,0-18.1,6.31,6.31,0,0,1,4.79,2h.14V356.4h3.79Zm-3.51,8.54c0-3.19-2.13-5.52-4.85-5.52a5.5,5.5,0,0,0,0,11C395,370.38,397.13,368.09,397.13,364.93Z" transform="translate(-252.99 -336.03)" style="fill:#5f6368"/><path d="M407.64,346.8v26.6h-4V346.8Z" transform="translate(-252.99 -336.03)" style="fill:#5f6368"/><path d="M423.35,367.88l3.1,2.06a9.05,9.05,0,0,1-7.58,4,8.77,8.77,0,0,1-8.89-9c0-5.38,3.76-9,8.45-9s7,3.74,7.78,5.76l.41,1-12.16,5a4.63,4.63,0,0,0,4.41,2.74A5.2,5.2,0,0,0,423.35,367.88Zm-9.54-3.26,8.13-3.36a3.52,3.52,0,0,0-3.37-1.92A5,5,0,0,0,413.81,364.63Z" transform="translate(-252.99 -336.03)" style="fill:#5f6368"/><path d="M273.43,359.1l-20.26,21.23h0a5.5,5.5,0,0,0,8.06,3.26l.06,0,22.8-13Z" transform="translate(-252.99 -336.03)" style="fill:#ea4335"/><path d="M293.92,355.48h0l-9.84-5.63L273,359.58l11.13,11,9.79-5.58a5.37,5.37,0,0,0,0-9.5Z" transform="translate(-252.99 -336.03)" style="fill:#fbbc04"/><path d="M253.17,340a5.22,5.22,0,0,0-.19,1.39v37.51a5.64,5.64,0,0,0,.19,1.39l21-20.68Z" transform="translate(-252.99 -336.03)" style="fill:#4285f4"/><path d="M273.58,360.18l10.48-10.35-22.77-13a5.54,5.54,0,0,0-2.83-.77,5.46,5.46,0,0,0-5.29,4h0Z" transform="translate(-252.99 -336.03)" style="fill:#34a853"/></svg>